<svg width="146" height="46" viewBox="0 0 146 46" fill="none" xmlns="http://www.w3.org/2000/svg">
<path d="M64.6813 17.7387C64.6813 18.01 64.6813 18.4643 64.6813 18.4643C64.6813 18.4643 63.2744 16.6503 60.2805 16.6503C55.334 16.6503 51.476 20.4169 51.476 25.6348C51.476 30.8084 55.2868 34.6193 60.2805 34.6193C63.3216 34.6193 64.6813 32.7581 64.6813 32.7581V33.5309C64.6813 33.8937 64.9527 34.165 65.3155 34.165H68.9907V17.1016C68.9907 17.1016 65.6341 17.1016 65.3155 17.1016C64.9527 17.1016 64.6813 17.4201 64.6813 17.7387ZM64.6813 28.6729C64 29.6698 62.6402 30.5341 61.0061 30.5341C58.1008 30.5341 55.8797 28.7201 55.8797 25.6318C55.8797 22.5465 58.1037 20.7296 61.0061 20.7296C62.593 20.7296 64.0472 21.6381 64.6813 22.5908V28.6729Z" fill="#888888"/>
<path d="M41.1284 30.9883C40.7656 30.1712 40.4028 29.4014 40.0842 28.6728L40.04 28.6286C36.9075 21.8209 33.5509 14.9247 30.0113 8.11703L29.8756 7.84567C29.5128 7.16431 29.15 6.4387 28.7872 5.7131C28.333 4.89606 27.8788 4.03477 27.1532 3.21773C25.702 1.40078 23.6136 0.403809 21.3896 0.403809C19.1214 0.403809 17.0773 1.40078 15.5819 3.1263C14.9005 3.94334 14.402 4.80462 13.9478 5.62166C13.585 6.34727 13.2222 7.07287 12.8594 7.75423L12.7237 8.02559C9.2284 14.8333 5.8275 21.7295 2.69502 28.5372L2.65078 28.6286C2.33222 29.3542 1.96942 30.127 1.60662 30.944C1.3795 31.4425 1.15238 31.9882 0.925257 32.5781C0.335336 34.2564 0.15246 35.8463 0.37958 37.4804C0.878063 40.8842 3.14631 43.7424 6.27879 45.0137C7.45864 45.5121 8.68272 45.7393 9.954 45.7393C10.3168 45.7393 10.771 45.695 11.1338 45.6478C12.6322 45.465 14.1749 44.9665 15.6703 44.1052C17.5315 43.061 19.3013 41.5626 21.2982 39.3858C23.2951 41.5626 25.1091 43.061 26.926 44.1052C28.4244 44.9665 29.9671 45.4679 31.4625 45.6478C31.8253 45.6921 32.2796 45.7393 32.6424 45.7393C33.9137 45.7393 35.1849 45.5121 36.3176 45.0137C39.4943 43.7424 41.7183 40.84 42.2168 37.4804C42.5796 35.8935 42.3997 34.3036 41.8098 32.6253C41.5826 32.0767 41.3555 31.4868 41.1284 30.9883ZM21.3454 34.982C18.8943 31.8968 17.3074 28.9914 16.7617 26.5432C16.5346 25.4991 16.4903 24.5906 16.626 23.7765C16.7175 23.0509 16.9888 22.4138 17.3516 21.871C18.2129 20.6411 19.6641 19.8712 21.3454 19.8712C23.0237 19.8712 24.5221 20.5968 25.3392 21.8681C25.702 22.4138 25.9733 23.0479 26.0648 23.7735C26.2004 24.5906 26.1562 25.5433 25.9291 26.5403C25.3834 28.9472 23.7936 31.8496 21.3454 34.982ZM39.4501 37.1146C39.1315 39.4743 37.5446 41.5154 35.3206 42.4239C34.2322 42.8781 33.0524 43.0138 31.8725 42.8781C30.7369 42.7425 29.6043 42.3797 28.4244 41.6983C26.7904 40.7898 25.1563 39.3829 23.2508 37.2975C26.2447 33.6223 28.0616 30.2627 28.743 27.2688C29.0586 25.8619 29.1028 24.5906 28.9672 23.4107C28.7843 22.2751 28.3772 21.2339 27.7431 20.3255C26.3361 18.2843 23.9764 17.1045 21.3454 17.1045C18.7143 17.1045 16.3547 18.3286 14.9477 20.3255C14.3135 21.2339 13.9035 22.2781 13.7236 23.4107C13.5407 24.5906 13.5879 25.9061 13.9507 27.2688C14.6321 30.2627 16.4933 33.6665 19.4429 37.3417C17.5817 39.4301 15.9034 40.837 14.2693 41.7425C13.0894 42.4239 11.9538 42.7867 10.8212 42.9224C9.5971 43.0581 8.41726 42.8781 7.3731 42.4682C5.14909 41.5597 3.56221 39.5185 3.24365 37.1589C3.10797 36.0233 3.1994 34.8906 3.65069 33.6193C3.78638 33.1651 4.0135 32.7109 4.24062 32.1681C4.55917 31.4425 4.92197 30.6697 5.28478 29.8999L5.32902 29.8084C8.4615 23.0479 11.8182 16.1488 15.3134 9.43256L15.4491 9.16119C15.8119 8.47983 16.1747 7.75423 16.5375 7.07287C16.9003 6.34727 17.3103 5.66591 17.8088 5.07599C18.7615 3.98758 20.0328 3.39766 21.4398 3.39766C22.8467 3.39766 24.118 3.98758 25.0707 5.07599C25.5692 5.66591 25.9792 6.34727 26.342 7.07287C26.7048 7.75423 27.0676 8.47983 27.4304 9.16119L27.5661 9.43256C31.0142 16.1931 34.3738 23.0922 37.5033 29.8527V29.8999C37.8661 30.6255 38.1847 31.4425 38.5475 32.1681C38.7746 32.7138 39.0017 33.1651 39.1374 33.6193C39.4943 34.7992 39.6329 35.9348 39.4501 37.1146Z" fill="#888888"/>
<path d="M83.1037 18.4643V17.7387C83.1037 17.4201 82.8323 17.1045 82.4695 17.1045C82.151 17.1045 78.7943 17.1045 78.7943 17.1045V34.2122H83.1509V22.2752C85.4191 19.6884 89.0501 20.9124 89.0501 20.9124V16.8774C89.0501 16.8774 88.3687 16.6503 87.0532 16.6503C85.6905 16.6503 83.9207 17.5116 83.1037 18.4643Z" fill="#888888"/>
<path d="M136.787 16.6503C133.793 16.6503 132.386 18.4643 132.386 18.4643V8.88989H128.029V34.1651C128.029 34.1651 131.386 34.1651 131.705 34.1651C132.067 34.1651 132.339 33.8465 132.339 33.5309V32.7581C132.339 32.7581 133.746 34.6193 136.739 34.6193C141.686 34.6193 145.544 30.8084 145.544 25.6348C145.544 20.4612 141.686 16.6503 136.787 16.6503ZM136.058 30.4899C134.38 30.4899 133.064 29.6286 132.383 28.6287V22.5495C133.064 21.641 134.515 20.6883 136.058 20.6883C138.963 20.6883 141.185 22.5023 141.185 25.5906C141.187 28.6729 138.963 30.4899 136.058 30.4899Z" fill="#888888"/>
<path d="M123.626 18.2814C122.355 17.193 120.768 16.6473 118.862 16.6473C117.184 16.6473 115.506 17.1458 114.234 18.4613V17.7357C114.234 17.4172 113.963 17.1016 113.6 17.1016H110.152V34.1651H114.509V22.2752C115.37 21.2782 116.733 20.5969 118.048 20.5969C120.499 20.5969 121.405 21.7325 121.405 24.5434V34.2093H125.762V24.045C125.759 21.1868 125.169 19.5527 123.626 18.2814Z" fill="#888888"/>
<path d="M76.0687 17.1016H71.7122V34.165H76.0687V17.1016Z" fill="#888888"/>
<path d="M99.574 16.6503C96.5802 16.6503 95.1732 18.4643 95.1732 18.4643V8.88989H90.8167V34.1651C90.8167 34.1651 94.1733 34.1651 94.4919 34.1651C94.8547 34.1651 95.126 33.8465 95.126 33.5309V32.7581C95.126 32.7581 96.533 34.6193 99.5268 34.6193C104.473 34.6193 108.331 30.8084 108.331 25.6348C108.379 20.4612 104.521 16.6503 99.574 16.6503ZM98.8484 30.4899C97.1701 30.4899 95.8546 29.6286 95.1732 28.6287V22.5495C95.8546 21.641 97.3058 20.6883 98.8484 20.6883C101.754 20.6883 103.975 22.5023 103.975 25.5906C103.978 28.6729 101.754 30.4899 98.8484 30.4899Z" fill="#888888"/>
<path d="M73.892 8.84265C72.2137 8.84265 70.9424 10.1582 70.9424 11.7923C70.9424 13.4263 72.2579 14.7419 73.892 14.7419C75.5261 14.7419 76.8416 13.4263 76.8416 11.7923C76.8416 10.2054 75.5703 8.88985 73.892 8.84265Z" fill="#888888"/>
</svg>
