<svg width="192" height="41" viewBox="0 0 192 41" fill="none" xmlns="http://www.w3.org/2000/svg">
<path d="M0.356201 0.0820312V20.0715L21.9971 0.0820312H0.356201Z" fill="#888888"/>
<path d="M151.017 8.70264L145.389 31.5194H155.582L161.203 8.70264H151.017Z" fill="#888888"/>
<path d="M146.756 8.70264H136.048L127.936 15.6917L129.667 8.70264H120.009L114.856 31.5194H124.118L125.789 24.6229L130.909 31.5194H142.225L134.066 19.9327L146.756 8.70264Z" fill="#888888"/>
<path d="M104.729 8.70264L99.1012 31.5194H109.287L114.916 8.70264H104.729Z" fill="#888888"/>
<path d="M184.469 8.70264L181.265 21.2803L176.846 8.70264H166.111L160.43 31.5194H167.485L170.762 18.5058L174.891 31.5194H186.292L192 8.70264H184.469Z" fill="#888888"/>
<path d="M58.9571 8.70264H43.6512L37.9437 31.5194H56.6186C67.8552 29.716 68.3639 20.5206 68.3969 20.2101C69.4935 9.54159 58.9571 8.70264 58.9571 8.70264ZM59.043 20.699C57.7945 25.8912 53.4147 26.2083 53.4147 26.2083H49.0086L51.8227 14.4167H55.7268C57.2263 14.3639 58.204 15.2953 58.204 15.2953C59.7036 16.7486 59.043 20.699 59.043 20.699Z" fill="#888888"/>
<path d="M80.1753 8.70264L67.459 31.526H74.1772L76.9252 27.1859H84.9316L85.7045 31.526H95.8511L91.8083 8.70264H80.1753ZM79.7658 21.9475L82.9696 16.1079L84.0134 21.9475H79.7658Z" fill="#888888"/>
<path d="M23.7477 0.0820312L0.356201 21.9476V40.0609L43.6579 0.0820312H23.7477Z" fill="#888888"/>
</svg>
