<svg width="174" height="40" viewBox="0 0 174 40" fill="none" xmlns="http://www.w3.org/2000/svg">
<path d="M32.848 0.43811H27.3116V6.26961H32.848V0.43811Z" fill="#888888"/>
<path d="M129.795 0.43811H124.259V6.26961H129.795V0.43811Z" fill="#888888"/>
<path d="M15.0759 8.36267C11.5852 8.36267 9.56669 9.92995 8.59308 11.0121C8.47774 10.0792 7.86372 8.87153 5.46191 8.87153H0.251221V14.3265H2.38842C2.7514 14.3265 2.86674 14.4418 2.86674 14.8014V39.7048H9.07819V30.3588C9.07819 30.1078 9.0748 29.8703 9.06801 29.66C10.0382 30.5522 11.8905 31.7769 14.7842 31.7769C20.8565 31.7769 25.1004 26.9631 25.1004 20.0732C25.097 13.0679 21.0669 8.36267 15.0759 8.36267ZM13.8139 26.366C10.4691 26.366 8.94928 23.1636 8.94928 20.1987C8.94928 15.5274 11.5037 13.8617 13.8954 13.8617C16.8264 13.8617 18.8007 16.389 18.8007 20.1546C18.8007 24.4493 16.2938 26.366 13.8139 26.366Z" fill="#888888"/>
<path d="M33.2758 25.3823V12.1859C33.2758 9.95373 32.2004 8.86816 29.9988 8.86816H24.4489V14.3231H26.586C26.9456 14.3231 27.061 14.4384 27.061 14.798V27.9503C27.061 30.213 28.1024 31.2646 30.3346 31.2646H35.8913V25.8606H33.7541C33.4081 25.8606 33.2758 25.7249 33.2758 25.3823Z" fill="#888888"/>
<path d="M49.4981 8.36267C46.0074 8.36267 43.9923 9.92995 43.0119 11.0121C42.8966 10.0792 42.2859 8.87153 39.8841 8.87153H34.67V14.3265H36.8072C37.1668 14.3265 37.2856 14.4418 37.2856 14.8014V39.7048H43.5004V30.3588C43.5004 30.1078 43.4936 29.8703 43.4868 29.66C44.4537 30.5522 46.3127 31.7769 49.2064 31.7769C55.2787 31.7769 59.5192 26.9631 59.5192 20.0732C59.5192 13.0679 55.4925 8.36267 49.4981 8.36267ZM48.2328 26.366C44.8981 26.366 43.3749 23.1636 43.3749 20.1987C43.3749 15.5274 45.9293 13.8617 48.321 13.8617C51.252 13.8617 53.223 16.389 53.223 20.1546C53.223 24.4493 50.7194 26.366 48.2328 26.366Z" fill="#888888"/>
<path d="M70.9682 8.36267C64.2784 8.36267 59.5969 13.1765 59.5969 20.0698C59.5969 26.8511 64.6448 31.7735 71.6025 31.7735C77.0745 31.7735 80.4193 28.5337 80.5584 28.3981L80.8095 28.1504L78.1057 23.6589L77.702 24.0388C77.6749 24.0592 75.2222 26.3219 71.9791 26.3219C68.8649 26.3219 66.5886 24.4222 66.0526 21.4437H80.7789L80.8129 21.0366C80.823 20.9789 80.9452 19.6593 80.9452 19.0113C80.9485 12.6439 76.9388 8.36267 70.9682 8.36267ZM66.2833 16.8368C66.9584 14.6386 68.641 13.3936 70.9682 13.3936C72.8374 13.3936 74.2791 14.815 74.5302 16.8368H66.2833Z" fill="#888888"/>
<path d="M103.539 25.3823V3.75246C103.539 1.52367 102.45 0.43811 100.217 0.43811H94.6674V5.89305H96.8046C97.1642 5.89305 97.283 6.00839 97.283 6.37138V10.2828C96.367 9.45505 94.5759 8.3661 91.4956 8.3661C85.4673 8.3661 81.2642 13.1799 81.2642 20.0732C81.2642 27.0751 85.2943 31.7769 91.2886 31.7769C94.7149 31.7769 96.6893 30.1859 97.6561 29.0766C97.7817 30.0434 98.4058 31.268 100.733 31.268H106.113V25.8606H104.02C103.667 25.8606 103.539 25.7249 103.539 25.3823ZM92.4624 26.3661C89.5076 26.3661 87.5977 23.893 87.5977 20.0698C87.5977 16.3551 89.5857 13.8584 92.5472 13.8584C95.9057 13.8584 97.4085 16.9522 97.4085 20.0291C97.4085 24.7038 94.8506 26.3661 92.4624 26.3661Z" fill="#888888"/>
<path d="M119.957 8.573C117.372 8.573 114.991 10.0656 113.583 12.4437V11.9315C113.583 9.90281 112.464 8.87153 110.265 8.87153H104.926V14.3265H107.06C107.419 14.3265 107.538 14.4418 107.538 14.8014V31.268H113.749V22.3053C113.749 21.1248 113.899 19.9883 114.194 18.9367C115.127 15.8463 117.613 14.7437 119.622 14.7437C120.334 14.7437 120.853 14.8184 120.86 14.8218L121.379 14.8998V8.72566L121.002 8.6612C120.982 8.6612 120.456 8.573 119.957 8.573Z" fill="#888888"/>
<path d="M130.221 25.3823V12.1859C130.221 9.95373 129.152 8.86816 126.947 8.86816H121.926V14.3231H123.531C123.894 14.3231 124.009 14.4384 124.009 14.798V27.9503C124.009 30.213 125.051 31.2646 127.286 31.2646H132.836V25.8606H130.699C130.353 25.8606 130.221 25.7249 130.221 25.3823Z" fill="#888888"/>
<path d="M153.559 14.3231V8.87158H150.245C148.308 8.87158 147.27 9.54327 146.656 11.192L142.605 22.5022C142.466 22.9228 142.334 23.391 142.222 23.8421C142.103 23.3876 141.964 22.9126 141.811 22.492L137.761 11.1886C137.14 9.52292 136.136 8.87158 134.175 8.87158H130.654V14.3265H131.57C132.055 14.3265 132.211 14.4894 132.326 14.7947L138.592 31.2715H145.577L151.846 14.7947C151.961 14.4928 152.121 14.3265 152.606 14.3265H153.559V14.3231Z" fill="#888888"/>
<path d="M173.517 21.04C173.524 20.9823 173.65 19.6627 173.65 19.0147C173.65 12.6439 169.636 8.36267 163.666 8.36267C156.976 8.36267 152.298 13.1765 152.298 20.0698C152.298 26.8511 157.342 31.7735 164.3 31.7735C169.772 31.7735 173.12 28.5337 173.259 28.3981L173.514 28.1504L170.814 23.6589L170.403 24.0388C170.383 24.0592 167.913 26.3219 164.684 26.3219C161.569 26.3219 159.29 24.4222 158.75 21.4437H173.483L173.517 21.04ZM158.981 16.8368C159.659 14.6386 161.339 13.3936 163.666 13.3936C165.542 13.3936 166.977 14.815 167.231 16.8368H158.981Z" fill="#888888"/>
</svg>
