<svg width="200" height="30" viewBox="0 0 200 30" fill="none" xmlns="http://www.w3.org/2000/svg">
<path fill-rule="evenodd" clip-rule="evenodd" d="M109.771 13.9445C109.771 13.9445 107.835 12.753 106.643 12.2814C106.643 12.2814 102.945 10.5687 102.2 9.74953C102.2 9.74953 100.76 8.38431 101.604 6.80811C101.604 6.80811 101.952 5.77799 103.478 5.77799C103.478 5.77799 105.464 5.88969 105.464 7.51554V9.82399H112.576L112.563 6.43578C112.563 6.43578 113.109 0.888042 104.186 0.639821C104.186 0.639821 97.1612 0.180612 95.1506 3.96598C95.1506 3.96598 94.3563 4.80993 94.3563 7.75135V9.86123C94.3563 9.86123 94.2695 12.3062 95.523 13.8948C95.523 13.8948 96.2304 14.9249 97.968 16.0668C97.968 16.0668 101.505 17.9781 103.627 19.0578C103.627 19.0578 105.775 20.2865 105.489 22.2226C105.489 22.2226 105.315 24.2208 103.243 24.1339C103.243 24.1339 101.344 24.0471 101.344 22.0861V19.7901H93.7606V23.1286C93.7606 23.1286 93.5496 29.5203 103.292 29.5203C103.292 29.5203 112.601 29.7065 113.035 22.9549V20.2369C113.06 20.2617 113.382 16.1288 109.771 13.9445Z" fill="#888888"/>
<path fill-rule="evenodd" clip-rule="evenodd" d="M73.3323 1.48145L70.9494 16.4119H70.3909L68.1197 1.61797H56.2299L55.6342 28.6616H62.6712L62.7581 8.2827H63.3166L67.0399 28.6492H74.4493L78.1354 8.29511H78.6194L78.7932 28.6616H85.8675L85.1104 1.48145H73.3323Z" fill="#888888"/>
<path fill-rule="evenodd" clip-rule="evenodd" d="M31.4455 1.55591L26.7542 28.5872H34.3373L37.105 7.62491H37.7255L40.5056 28.5872H48.0763L43.3974 1.55591H31.4455Z" fill="#888888"/>
<path fill-rule="evenodd" clip-rule="evenodd" d="M190.431 13.7749V17.7588H192.38V22.0406C192.38 24.1381 190.592 24.1753 190.592 24.1753C188.42 24.1753 188.495 22.1896 188.495 22.1896V7.38319C188.495 5.85663 190.419 5.78217 190.419 5.78217C192.268 5.78217 192.28 7.60659 192.28 7.60659V9.85299H199.417C199.652 5.45948 198.771 4.39213 198.771 4.39213C196.996 0.420597 190.307 0.631585 190.307 0.631585C180.018 0.631585 181.16 8.52501 181.16 8.52501V22.8474C181.383 30.2443 191.511 29.4997 191.685 29.4873C196.19 28.9908 197.555 27.5511 197.555 27.5511C198.809 26.6203 199.131 25.3296 199.131 25.3296C199.491 24.5725 199.578 22.1896 199.578 22.1896V13.7749H190.431Z" fill="#888888"/>
<path fill-rule="evenodd" clip-rule="evenodd" d="M166.775 18.0254H166.477L159.229 1.49386H150.566V28.6616H157.616L157.194 12.1301H157.517L165.013 28.6616H173.415V1.48145H166.279L166.775 18.0254Z" fill="#888888"/>
<path fill-rule="evenodd" clip-rule="evenodd" d="M133.365 21.4756C133.365 21.4756 133.465 23.7096 131.404 23.7096C131.404 23.7096 129.232 23.8213 129.232 21.5377L129.208 1.09668H121.476V21.3763C121.476 21.3763 120.681 29.0464 131.516 29.0464C131.516 29.0464 140.924 29.1581 140.924 21.7238V1.09668H133.365V21.4756Z" fill="#888888"/>
<path fill-rule="evenodd" clip-rule="evenodd" d="M16.7006 13.9362C16.7006 13.9362 14.7645 12.7447 13.573 12.2731C13.573 12.2731 9.87456 10.5604 9.14231 9.74127C9.14231 9.74127 7.70263 8.37606 8.54658 6.79986C8.54658 6.79986 8.89409 5.76974 10.4206 5.76974C10.4206 5.76974 12.4064 5.88144 12.4064 7.50729V9.81574H19.5304L19.5179 6.42753C19.5179 6.42753 20.064 0.879789 11.1405 0.631568C11.1405 0.631568 10.4703 0.594335 9.4774 0.643979C9.4774 0.643979 4.06619 0.929433 2.14248 3.89567C2.10524 3.92049 2.09283 3.93291 2.08042 3.95773C2.08042 3.95773 1.28612 4.80168 1.28612 7.7431V9.85297C1.28612 9.85297 1.19924 12.298 2.45275 13.8866C2.45275 13.8866 3.16018 14.9167 4.89773 16.0585C4.89773 16.0585 8.43488 17.9574 10.5572 19.0496C10.5572 19.0496 12.7043 20.2782 12.4188 22.2268C12.4188 22.2268 12.2451 24.225 10.1724 24.1381C10.1724 24.1381 8.27353 24.0512 8.27353 22.0903V19.7942H0.715207V23.1328C0.715207 23.1328 0.504219 29.5245 10.2469 29.5245C10.2469 29.5245 19.5552 29.7106 19.9896 22.959V20.241C19.9896 20.2534 20.3247 16.1206 16.7006 13.9362Z" fill="#888888"/>
</svg>
