<svg width="123" height="42" viewBox="0 0 123 42" fill="none" xmlns="http://www.w3.org/2000/svg">
<path d="M24.0717 24.8787C23.8002 18.9844 18.4685 18.2584 12.6574 16.9261C9.41259 16.1795 7.49113 15.8619 7.49113 14.5131C7.49113 13.5603 8.78058 12.4589 11.9194 12.4589C14.0996 12.4589 15.5078 13.1684 16.1186 14.1336C16.2119 14.278 16.3392 14.3976 16.4919 14.4842C16.6446 14.5667 16.8185 14.6121 16.9924 14.6121H22.7865C22.8628 14.6121 22.9392 14.5956 23.007 14.5626C23.0749 14.5296 23.1343 14.4842 23.1809 14.4265C23.2276 14.3687 23.2615 14.2986 23.2743 14.2285C23.2912 14.1584 23.287 14.08 23.27 14.0099C22.1417 9.49322 17.7347 6.55225 11.9194 6.55225C4.24627 6.55225 0.589984 10.7595 0.589984 14.8142C0.589984 20.5724 6.43496 21.0798 11.843 22.3832C16.3986 23.4804 17.2214 23.8269 17.2214 25.2788C17.2214 26.7802 15.1642 27.5846 12.4326 27.5846C10.6342 27.5846 8.25462 26.9411 7.11362 25.221C7.0203 25.0726 6.88881 24.9529 6.73611 24.8663C6.58342 24.7797 6.40527 24.7343 6.22712 24.7343H0.492427C0.420319 24.7343 0.34397 24.7508 0.280345 24.7838C0.212479 24.8168 0.157338 24.8622 0.11068 24.9199C0.0640216 24.9777 0.0343301 25.0437 0.0173636 25.1138C0.000397036 25.1839 0.000397036 25.2582 0.0173636 25.3283C1.15836 30.4513 6.00231 33.6026 12.4454 33.6026C19.232 33.5944 24.3092 29.9852 24.0717 24.8787Z" fill="#888888"/>
<path d="M122.664 27.4856C122.435 26.9535 122.104 26.4709 121.684 26.0626C121.264 25.6542 120.768 25.3325 120.221 25.1097C119.674 24.8911 119.084 24.7756 118.495 24.7756H118.431C117.235 24.7756 116.085 25.2376 115.241 26.0626C114.393 26.8875 113.918 28.0012 113.918 29.1685C113.918 30.3317 114.393 31.4495 115.241 32.2745C116.09 33.0995 117.235 33.5614 118.431 33.5614H118.495C119.089 33.5614 119.674 33.4459 120.221 33.2273C120.768 33.0087 121.264 32.6829 121.684 32.2745C122.104 31.8662 122.435 31.3835 122.664 30.8515C122.889 30.3194 123.008 29.746 123.008 29.1727C123.008 28.5869 122.893 28.0177 122.664 27.4856Z" fill="#888888"/>
<path d="M86.9841 26.8544H84.3755C83.8537 26.8544 83.3532 26.6523 82.98 26.2935C82.6109 25.9346 82.4031 25.4479 82.4031 24.9405L82.3819 13.5355C82.3819 13.4736 82.3946 13.4076 82.4201 13.3499C82.4455 13.2921 82.4794 13.2385 82.5261 13.1931C82.5728 13.1478 82.6279 13.1148 82.6873 13.09C82.7467 13.0653 82.8103 13.0529 82.8782 13.0529H86.9798C87.1113 13.0529 87.2386 13.0034 87.3276 12.9127C87.421 12.8219 87.4719 12.7023 87.4719 12.5744V7.67004C87.4719 7.60817 87.4591 7.5463 87.4337 7.48443C87.4082 7.42668 87.3743 7.37306 87.3276 7.32769C87.281 7.28231 87.2258 7.24931 87.1665 7.22457C87.1071 7.19982 87.0434 7.18744 86.9756 7.18744H82.8697C82.7382 7.18744 82.6109 7.13794 82.5219 7.0472C82.4285 6.95645 82.3777 6.83271 82.3777 6.70484V0.938385C82.3777 0.876514 82.3649 0.810517 82.3395 0.75277C82.314 0.695023 82.2758 0.641401 82.2292 0.596028C82.1825 0.550655 82.1274 0.513532 82.068 0.488783C82.0086 0.464035 81.9408 0.45166 81.8771 0.45166H76.0788C76.0152 0.45166 75.9473 0.464035 75.8879 0.488783C75.8286 0.513532 75.7734 0.550655 75.7268 0.596028C75.6801 0.641401 75.6419 0.695023 75.6165 0.75277C75.591 0.810517 75.5783 0.876514 75.5783 0.938385L75.5698 26.8916C75.5741 28.5044 76.2358 30.0512 77.4107 31.1896C78.5814 32.3322 80.172 32.9756 81.8305 32.9798H86.9713C87.1028 32.9798 87.2301 32.9303 87.3192 32.8395C87.4125 32.7488 87.4634 32.625 87.4634 32.5013L87.4676 27.3329C87.4676 27.205 87.4167 27.0813 87.3234 26.9906C87.2386 26.9039 87.1156 26.8544 86.9841 26.8544Z" fill="#888888"/>
<path d="M61.7886 6.56458C55.3371 6.56458 50.701 9.70767 49.5091 14.0676C49.4879 14.1377 49.4879 14.2161 49.5006 14.2862C49.5176 14.3604 49.5473 14.4264 49.5939 14.4842C49.6406 14.5419 49.7 14.5914 49.7678 14.6244C49.8357 14.6574 49.9121 14.6739 49.9884 14.6739H55.651C55.8249 14.678 55.9988 14.6368 56.1515 14.5584C56.3042 14.48 56.4357 14.3646 56.5332 14.2243C57.5724 12.6486 59.8841 11.8897 61.9456 11.8897C62.7218 11.8814 63.498 11.9681 64.253 12.1413C64.8299 12.2692 65.3771 12.5001 65.8691 12.826C66.2423 13.0652 66.535 13.4117 66.7047 13.816C66.8701 14.2532 66.8871 14.8967 66.552 15.2679C66.412 15.4123 66.2424 15.5195 66.0515 15.5896C65.1098 15.9402 61.6444 16.5424 59.074 17.0952C56.1388 17.7304 51.3457 18.3903 49.4031 21.2447C48.7032 22.2718 48.3087 23.5711 48.3087 25.2086C48.3087 30.8348 53.7932 33.5985 59.426 33.5985C62.7048 33.5985 65.1014 32.5549 66.8447 31.1112C66.8786 31.0823 66.9168 31.0617 66.9634 31.0535C67.0101 31.0452 67.0525 31.0493 67.0949 31.07C67.1373 31.0865 67.1713 31.1153 67.1967 31.1525C67.2222 31.1896 67.2349 31.2308 67.2349 31.2762V32.5095C67.2349 32.6374 67.29 32.7611 67.3834 32.8519C67.4767 32.9426 67.6039 32.9921 67.7354 32.9921H72.8975C73.029 32.9921 73.1562 32.9385 73.2495 32.8477C73.3429 32.757 73.398 32.6333 73.398 32.5054L73.4192 15.404C73.4107 13.3499 72.5836 6.56458 61.7886 6.56458ZM59.5575 27.8856C56.8174 27.8856 55.0699 26.8544 55.1123 25.2664C55.1632 23.3607 57.1144 22.9524 60.4186 22.2512C62.8872 21.7273 64.0452 21.6737 66.4502 21.1292C66.5223 21.1086 66.5986 21.1045 66.675 21.121C66.7514 21.1333 66.8192 21.1663 66.8786 21.2117C66.938 21.2571 66.9846 21.3148 67.0186 21.3849C67.0483 21.4509 67.0652 21.5252 67.061 21.5994V23.0431C67.0567 26.3594 63.6422 27.8856 59.5575 27.8856Z" fill="#888888"/>
<path d="M114.218 22.4739C114.193 22.4038 114.146 22.3378 114.087 22.2842C114.027 22.2306 113.959 22.1934 113.883 22.1728C113.807 22.1522 113.726 22.1522 113.65 22.1646L107.788 23.3979C107.622 23.435 107.466 23.5093 107.338 23.6165C107.211 23.7237 107.109 23.8599 107.046 24.0166C106.257 25.9594 104.433 27.1721 102.388 27.601C99.487 28.2074 96.7427 27.0566 95.1394 24.557C95.0969 24.491 95.0715 24.4167 95.0673 24.3383C95.0588 24.26 95.0757 24.1816 95.1054 24.1115C95.1351 24.0414 95.186 23.9754 95.2454 23.9259C95.3048 23.8764 95.3811 23.8434 95.4575 23.8269L113.412 20.0651C113.671 20.0114 113.9 19.8629 114.053 19.6485C114.201 19.434 114.265 19.1741 114.222 18.9184C112.615 9.41897 105.247 5.29831 97.8498 6.84923C90.5584 8.3754 85.8968 15.602 87.5129 22.8823C89.1247 30.1625 96.4119 34.7823 103.703 33.252C109.871 31.961 113.624 27.8362 114.252 22.6925C114.252 22.6224 114.244 22.5441 114.218 22.4739ZM94.1765 18.5141C94.1002 18.4935 94.028 18.4523 93.9687 18.3986C93.9093 18.345 93.8669 18.279 93.8414 18.2007C93.816 18.1264 93.8075 18.048 93.8202 17.9697C94.3377 15.1813 96.2591 13.1189 99.0459 12.5332C101.981 11.9186 104.708 13.0158 106.252 15.3793C106.295 15.4453 106.32 15.5195 106.325 15.5979C106.329 15.6763 106.316 15.7505 106.286 15.8248C106.257 15.8949 106.206 15.9568 106.146 16.0063C106.087 16.0558 106.011 16.0888 105.934 16.1053L94.414 18.5183C94.3334 18.5389 94.2529 18.5348 94.1765 18.5141Z" fill="#888888"/>
<path d="M49.9068 32.1713L39.0992 20.2094C39.0398 20.1475 39.0101 20.065 39.0101 19.9784C39.0101 19.8918 39.0398 19.8134 39.0992 19.7474L49.945 7.76076C49.9917 7.71127 50.0214 7.64939 50.0299 7.5834C50.0383 7.5174 50.0299 7.44728 50.0002 7.38541C49.9705 7.32353 49.9238 7.27404 49.8687 7.23691C49.8093 7.19979 49.7414 7.18329 49.6736 7.18329H42.361C42.1828 7.18329 42.0089 7.22042 41.8477 7.29466C41.6866 7.36891 41.5423 7.47203 41.4278 7.60402L33.2542 16.9343C33.2075 16.9879 33.1439 17.0292 33.0718 17.0457C32.9997 17.0622 32.9276 17.0622 32.8555 17.0374C32.7876 17.0127 32.7282 16.9673 32.6858 16.9095C32.6434 16.8518 32.6222 16.7817 32.6222 16.7116V0.93011C32.6222 0.802242 32.5713 0.678498 32.478 0.587753C32.3846 0.497007 32.2574 0.44751 32.1259 0.44751H26.1791C26.0476 0.44751 25.9204 0.497007 25.8271 0.587753C25.7338 0.678498 25.6829 0.802242 25.6829 0.93011V32.4889C25.6829 32.6167 25.7338 32.7405 25.8271 32.8271C25.9204 32.9179 26.0476 32.9674 26.1791 32.9674H32.1259C32.2574 32.9674 32.3846 32.9179 32.478 32.8271C32.5713 32.7364 32.6222 32.6126 32.6222 32.4889V23.3731C32.6222 23.303 32.6476 23.2328 32.6858 23.1751C32.724 23.1174 32.7876 23.072 32.8555 23.0472C32.9233 23.0225 32.9997 23.0184 33.0675 23.039C33.1354 23.0596 33.2033 23.0967 33.2499 23.1504L41.5932 32.5631C41.7078 32.691 41.8477 32.7941 42.0089 32.8684C42.1701 32.9385 42.3398 32.9756 42.5179 32.9756H49.5336C49.6269 32.9756 49.7202 32.9509 49.8008 32.8972C49.8814 32.8477 49.945 32.7776 49.9832 32.691C50.0214 32.6085 50.0341 32.5136 50.0214 32.4229C50.0129 32.328 49.9705 32.2414 49.9068 32.1713Z" fill="#888888"/>
<path d="M114.698 7.53385V9.57975H115.135V7.53385H115.92V7.16675H113.913V7.53385H114.698Z" fill="#888888"/>
<path d="M116.611 7.71947H116.615L117.311 9.57975H117.667L118.358 7.71947H118.367V9.57975H118.778V7.16675H118.172L117.506 9.0559H117.501L116.814 7.16675H116.204L116.195 9.57975H116.611V7.71947Z" fill="#888888"/>
</svg>
