<svg width="161" height="21" viewBox="0 0 161 21" fill="none" xmlns="http://www.w3.org/2000/svg">
<path d="M0.046875 20.1433L8.25019 0.324707H13.1141L21.3174 20.1433H16.3664L14.4499 15.5553H6.91443L4.9979 20.1433H0.046875ZM10.6894 5.08699L7.85817 12.0271H13.5061L10.6894 5.08699Z" fill="white"/>
<path d="M21.8546 20.1433V16.6152H25.9055C27.1832 16.6152 28.1221 16.5668 28.7222 16.47C29.3223 16.3732 29.7869 16.1941 30.116 15.9328C30.5516 15.594 30.8468 15.11 31.0017 14.4809C31.1662 13.842 31.2485 12.8305 31.2485 11.4464V0.324707H35.4591V11.4464C35.4591 12.8402 35.4058 13.8953 35.2994 14.6115C35.2026 15.3278 35.009 16.0005 34.7186 16.6297C33.9636 18.3139 32.5891 19.398 30.5951 19.882C29.6466 20.0562 28.2285 20.1433 26.341 20.1433H21.8546Z" fill="white"/>
<path d="M46.6824 20.1433V16.6152H55.7278C57.1797 16.6152 58.1476 16.47 58.6316 16.1796C59.3285 15.7634 59.677 15.1391 59.677 14.3066C59.677 13.3484 59.2705 12.6466 58.4574 12.2014C57.9928 11.9497 57.2523 11.8239 56.236 11.8239H52.5626C50.317 11.8239 48.7005 11.4173 47.7132 10.6043C47.0937 10.0912 46.6098 9.44757 46.2613 8.67321C45.9128 7.88918 45.7386 7.05675 45.7386 6.17592C45.7386 4.78208 46.1451 3.50924 46.9582 2.35739C47.7519 1.24425 49.0248 0.595731 50.7768 0.411822C51.3672 0.353745 52.248 0.324707 53.4192 0.324707H63.2487V3.85286H54.3775C53.0514 3.86254 52.1706 3.92061 51.735 4.02709C50.8445 4.24971 50.3993 4.92243 50.3993 6.04525C50.3993 6.99383 50.7719 7.63267 51.5172 7.96178C52.0206 8.1844 52.853 8.29572 54.0145 8.29572H57.1942C58.8204 8.29572 60.0351 8.43607 60.8385 8.71677C62.242 9.19106 63.2051 10.0235 63.7278 11.2141C64.1537 12.1723 64.3667 13.1983 64.3667 14.2921C64.3667 15.4924 64.0908 16.5716 63.5391 17.5299C62.7647 18.885 61.5984 19.6932 60.04 19.9546C59.285 20.0804 58.1525 20.1433 56.6425 20.1433H46.6824Z" fill="white"/>
<path d="M67.7787 5.66775V0.324707H71.7569V5.66775H75.4448V8.76033H71.7569V14.0163C71.7569 15.2455 71.8682 16.0199 72.0909 16.3393C72.4296 16.8136 73.0249 17.0508 73.8767 17.0508H75.4448V20.1433H72.5555C70.8325 20.1433 69.6032 19.7271 68.8676 18.8947C68.1416 18.0623 67.7787 16.6684 67.7787 14.7132V8.76033H65.2523V5.66775H67.7787Z" fill="white"/>
<path d="M87.6699 17.0508V5.66775H91.6481V20.1433H83.8078C82.6656 20.1433 81.7896 20.0611 81.1798 19.8965C80.57 19.732 80.0231 19.4271 79.5392 18.9818C78.5228 18.0623 78.0147 16.591 78.0147 14.568V5.66775H81.9929V14.9745C81.9929 15.623 82.1623 16.1312 82.5011 16.499C82.8399 16.8668 83.3093 17.0508 83.9094 17.0508H87.6699Z" fill="white"/>
<path d="M130.032 5.66775V0.324707H134.01V20.1433H102.378C100.984 20.1433 99.9386 20.0369 99.2416 19.8239C97.5381 19.2915 96.2701 18.2413 95.4376 16.6733C94.8762 15.6085 94.5955 14.3212 94.5955 12.8112C94.5955 10.3236 95.4279 8.39251 97.0928 7.01803C98.1769 6.11784 99.6482 5.66775 101.507 5.66775H130.032ZM130.032 17.0508V8.76033H102.378C101.11 8.76033 100.147 9.18138 99.4885 10.0235C98.9271 10.7494 98.6464 11.6787 98.6464 12.8112C98.6464 14.447 99.1158 15.6182 100.055 16.3248C100.703 16.8088 101.478 17.0508 102.378 17.0508H130.032Z" fill="white"/>
<path d="M137.945 5.66775H141.923V20.1433H137.945V5.66775ZM137.945 4.1868V0.324707H141.923V4.1868H137.945Z" fill="white"/>
<path d="M152.537 5.44996C155.208 5.44996 157.183 6.22432 158.46 7.77303C159.632 9.18622 160.217 10.9576 160.217 13.087C160.217 15.352 159.482 17.1572 158.01 18.5027C156.665 19.7416 154.821 20.3611 152.479 20.3611C150.059 20.3611 148.161 19.669 146.787 18.2849C145.529 17.0169 144.9 15.1923 144.9 12.8112C144.9 10.7785 145.504 9.08943 146.714 7.74399C148.06 6.24368 150.001 5.479 152.537 5.44996ZM152.566 8.49898C150.175 8.49898 148.979 9.98478 148.979 12.9564C148.979 14.1663 149.173 15.0858 149.56 15.715C150.209 16.7797 151.22 17.3121 152.595 17.3121C154.956 17.3121 156.137 15.836 156.137 12.8838C156.137 9.98962 154.947 8.52802 152.566 8.49898Z" fill="white"/>
</svg>
